<?xml version="1.0" standalone="no"?>
<!DOCTYPE svg PUBLIC "-//W3C//DTD SVG 20010904//EN"
 "http://www.w3.org/TR/2001/REC-SVG-20010904/DTD/svg10.dtd">
<svg version="1.0" xmlns="http://www.w3.org/2000/svg"
 width="192.000000pt" height="192.000000pt" viewBox="0 0 192.000000 192.000000"
 preserveAspectRatio="xMidYMid meet">
<metadata>
Created by potrace 1.11, written by Peter Selinger 2001-2013
</metadata>
<g transform="translate(0.000000,192.000000) scale(0.100000,-0.100000)"
fill="#000000" stroke="none">
<path d="M36 1814 c-14 -13 -16 -55 -16 -299 0 -244 2 -286 16 -299 8 -9 22
-16 31 -16 47 0 210 24 221 32 8 8 12 51 12 153 0 109 3 145 14 154 9 8 86 11
257 9 l244 -3 5 -435 5 -435 102 4 c56 2 116 6 135 10 l33 7 3 427 2 427 248
0 c180 0 251 -3 260 -12 8 -8 12 -59 12 -164 0 -122 3 -154 15 -164 10 -9 38
-10 97 -5 117 9 154 20 162 48 3 12 6 137 6 277 0 215 -2 259 -16 278 l-15 22
-909 0 c-813 0 -910 -2 -924 -16z"/>
<path d="M142 926 c-70 -8 -106 -16 -112 -26 -6 -9 -10 -175 -10 -391 0 -306
3 -379 14 -388 19 -16 1833 -16 1852 0 11 9 14 84 14 399 0 337 -2 389 -15
400 -16 13 -114 8 -423 -22 -138 -13 -142 -16 -142 -133 0 -119 0 -119 159
-123 l132 -4 -3 -116 -3 -117 -645 0 -645 0 -5 253 c-5 236 -6 255 -24 268
-11 8 -25 13 -30 13 -6 -1 -57 -7 -114 -13z"/>
</g>
</svg>
